0
SECTION
2
HEADER
9
$INSUNITS
70
4
9
$ACADVER
1
AC1014
9
$HANDSEED
5
FFFF
0
ENDSEC
0
SECTION
2
TABLES
0
TABLE
2
VPORT
5
8
100
AcDbSymbolTable
0
ENDTAB
0
TABLE
2
LTYPE
5
5
100
AcDbSymbolTable
0
LTYPE
5
14
100
AcDbSymbolTableRecord
100
AcDbLinetypeTableRecord
2
BYBLOCK
70
0
0
LTYPE
5
15
100
AcDbSymbolTableRecord
100
AcDbLinetypeTableRecord
2
BYLAYER
70
0
0
ENDTAB
0
TABLE
2
LAYER
5
2
100
AcDbSymbolTable
70
2
0
LAYER
5
50
100
AcDbSymbolTableRecord
100
AcDbLayerTableRecord
2
0
70
0
6
CONTINUOUS
0
ENDTAB
0
TABLE
2
STYLE
5
3
100
AcDbSymbolTable
70
1
0
STYLE
5
11
100
AcDbSymbolTableRecord
100
AcDbTextStyleTableRecord
2
STANDARD
70
0
0
ENDTAB
0
TABLE
2
VIEW
5
6
100
AcDbSymbolTable
70
0
0
ENDTAB
0
TABLE
2
UCS
5
7
100
AcDbSymbolTable
70
0
0
ENDTAB
0
TABLE
2
APPID
5
9
100
AcDbSymbolTable
70
2
0
APPID
5
12
100
AcDbSymbolTableRecord
100
AcDbRegAppTableRecord
2
ACAD
70
0
0
ENDTAB
0
TABLE
2
DIMSTYLE
5
A
100
AcDbSymbolTable
70
1
0
ENDTAB
0
TABLE
2
BLOCK_RECORD
5
1
100
AcDbSymbolTable
70
1
0
BLOCK_RECORD
5
1F
100
AcDbSymbolTableRecord
100
AcDbBlockTableRecord
2
*MODEL_SPACE
0
BLOCK_RECORD
5
1B
100
AcDbSymbolTableRecord
100
AcDbBlockTableRecord
2
*PAPER_SPACE
0
ENDTAB
0
ENDSEC
0
SECTION
2
BLOCKS
0
BLOCK
5
20
100
AcDbEntity
100
AcDbBlockBegin
2
*MODEL_SPACE
0
ENDBLK
5
21
100
AcDbEntity
100
AcDbBlockEnd
0
BLOCK
5
1C
100
AcDbEntity
100
AcDbBlockBegin
2
*PAPER_SPACE
0
ENDBLK
5
1D
100
AcDbEntity
100
AcDbBlockEnd
0
ENDSEC
0
SECTION
2
ENTITIES
0
LWPOLYLINE
5
100
100
AcDbEntity
8
0
100
AcDbPolyline
90
4
70
1
43
0.0
10
0
20
0
10
190
20
0
10
190
20
230
10
0
20
230
0
LWPOLYLINE
5
101
100
AcDbEntity
8
0
100
AcDbPolyline
90
4
70
1
43
0.0
10
20
20
20
10
170
20
20
10
170
20
210
10
20
20
210
0
LWPOLYLINE
5
102
100
AcDbEntity
8
0
100
AcDbPolyline
90
4
70
1
43
0.0
10
54.822945113215241
20
211.02363637187412
10
164.84301896852944
20
211.02363637187412
10
164.84301896852944
20
171.52885116937668
10
54.822945064142807
20
171.52885116937608
0
LWPOLYLINE
5
103
100
AcDbEntity
8
0
100
AcDbPolyline
90
8
70
1
43
0.0
10
61.293191712743692
20
163.70635258458213
10
169.86932577697175
20
163.70635258458213
10
169.86932577697175
20
73.969613501028618
10
168.74979734603826
20
162.78252176942129
10
57.297328213044224
20
161.49851544164773
10
62.452211800516736
20
74.901235239385286
10
169.86932577697175
20
73.969613501028618
10
61.293191712743692
20
73.969613501028618
0
LWPOLYLINE
5
104
100
AcDbEntity
8
0
100
AcDbPolyline
90
4
70
1
43
0.0
10
55.231611832301724
20
66.774420369353919
10
117.64239068000808
20
66.774420369353919
10
117.64239068000808
20
25.339484865993764
10
55.231611832301724
20
25.339484865993764
0
LWPOLYLINE
5
105
100
AcDbEntity
8
0
100
AcDbPolyline
90
4
70
1
43
0.0
10
124.51795224001039
20
66.435985163541289
10
169.35298096536371
20
66.435985163541289
10
169.35298096536371
20
23.967150421450572
10
124.51795224001039
20
23.967150421450572
0
LWPOLYLINE
5
106
100
AcDbEntity
8
0
100
AcDbPolyline
90
4
70
1
43
0.0
10
20.749731660601931
20
82.548814680955701
10
47.010148799606597
20
82.548814680955701
10
47.010148799606597
20
20.97146834812925
10
20.749731660601931
20
20.97146834812925
0
CIRCLE
5
107
100
AcDbEntity
8
0
100
AcDbCircle
10
31.974077717302791
20
106.77883972938463
30
0
40
16.46352654860063
210
0
220
0
230
1
0
CIRCLE
5
108
100
AcDbEntity
8
0
100
AcDbCircle
10
33.011455327923393
20
107.5502326076017
30
0
40
13.904253492385994
210
0
220
0
230
1
0
CIRCLE
5
109
100
AcDbEntity
8
0
100
AcDbCircle
10
27.472854220071341
20
150
30
0
40
15.248846904208982
210
0
220
0
230
1
0
CIRCLE
5
110
100
AcDbEntity
8
0
100
AcDbCircle
10
28.108791726053973
20
149.54512513687101
30
0
40
12.38158116925781
210
0
220
0
230
1
0
CIRCLE
5
111
100
AcDbEntity
8
0
100
AcDbCircle
10
31.39049783421591
20
188.43477306025608
30
0
40
12.253124899969638
210
0
220
0
230
1
0
CIRCLE
5
112
100
AcDbEntity
8
0
100
AcDbCircle
10
31.245008257447353
20
187.19811165772336
30
0
40
9.1799772589805002
210
0
220
0
230
1
0
LWPOLYLINE
5
113
100
AcDbEntity
8
0
100
AcDbPolyline
90
8
70
1
43
0.0
10
61.080966615858365
20
171.49061820517647
10
158.49701181750399
20
170.895461371696
42
0.43805647597933572
10
163.01198660877975
20
175.7307840589051
10
161.07203028091044
20
201.68590549894674
42
0.38927130045531583
10
154.66355021478341
20
207.70101431458173
10
59.994872944362861
20
208.77068735611772
42
0.40344037782263492
10
56.459396824121825
20
205.4396159939397
10
55.124596722122277
20
177.77971522633621
42
0.42660201727047325
0
LINE
5
114
100
AcDbEntity
8
0
100
AcDbLine
10
142.6375428486929
20
67.545912272689577
30
0
11
158.38476656454054
21
67.545912272689563
31
0
0
LINE
5
115
100
AcDbEntity
8
0
100
AcDbLine
10
169.7364566522235
20
53.8325896615776
30
0
11
169.273825296078
21
41.940875988840183
31
0
0
LINE
5
116
100
AcDbEntity
8
0
100
AcDbLine
10
151.89167426558868
20
24.691381215237715
30
0
11
140.92380711343165
21
24.65775167168729
31
0
0
LWPOLYLINE
5
117
100
AcDbEntity
8
0
100
AcDbPolyline
90
8
70
1
43
0.0
10
58.636067433233485
20
66.145074394426175
10
114.10478077519986
20
66.145074394426175
42
-0.41421356237309215
10
118.60478077519984
20
61.645074394426167
10
118.60478077519984
20
26.297084844297977
42
-0.41550957735863203
10
116.59593511695094
20
24.297104405811105
10
63.766122118908754
20
24.530763926745141
42
-0.37441168590754598
10
55.461853528620466
20
34.523349903522849
10
56.136735831468918
20
63.702880487711809
42
-0.40745665860459374
0
LWPOLYLINE
5
118
100
AcDbEntity
8
0
100
AcDbPolyline
90
8
70
1
43
0.0
10
22.249731660601931
20
82.548814680955701
10
45.991550854596817
20
82.548814680955701
42
-0.41962079054569784
10
46.991381099275451
20
81.530389648367418
10
45.911568798448677
20
22.934618282952712
42
-0.40882692992344855
10
43.911908309091423
20
20.971468348129246
10
28.249731660601931
20
20.97146834812925
42
-0.4142135623730947
10
20.749731660601931
20
28.47146834812925
10
20.749731660601928
20
81.048814680955701
42
-0.4142135623730881
0
LWPOLYLINE
5
119
100
AcDbEntity
8
0
100
AcDbPolyline
90
8
70
1
43
0.0
10
159.26248798210781
20
208.64911427931108
10
58.078807429876136
20
209.79240114482653
42
0.40344037308539554
10
55.553467346033656
20
207.41306449871448
10
53.899520155492837
20
173.13976872203637
42
0.42660202209490733
10
56.381340936114917
20
170.51931159596063
10
157.40676745328389
20
169.90210348918816
42
0.43805647598230674
10
163.928397707324
20
176.88645848186181
10
161.72728800740083
20
206.33561088872131
42
0.38927130045070091
0
LWPOLYLINE
5
120
100
AcDbEntity
8
0
100
AcDbPolyline
90
8
70
1
43
0.0
10
155.15689214660495
20
206.6953761157211
10
63.356462247351843
20
207.7326404768105
42
0.4034403730753755
10
57.295646046555646
20
202.02223252559099
10
56.098296477600485
20
177.21060845462264
42
0.42660202209456849
10
60.56557388268822
20
172.49378562770653
10
154.70864848204812
20
171.91862479105154
42
0.43805647597926411
10
161.73194260192076
20
179.44023785995478
10
160.03719619688059
20
202.11463940226906
42
0.38927130045137615
0
LINE
5
121
100
AcDbEntity
8
0
100
AcDbLine
10
168.09520626853993
20
146.65802345844929
30
0
11
168.74979734603826
21
75.059892244682658
31
0
0
LINE
5
122
100
AcDbEntity
8
0
100
AcDbLine
10
168.74979734603826
20
75.059892244682658
30
0
11
77.460604173086622
21
75.851637560569699
31
0
0
LINE
5
123
100
AcDbEntity
8
0
100
AcDbLine
10
62.612317202395069
20
90.045934367381463
30
0
11
59.915322560469534
21
140.21937807880289
31
0
0
LWPOLYLINE
5
124
100
AcDbEntity
8
0
100
AcDbPolyline
90
7
70
1
43
0.0
10
167.44607211798689
20
125.44301390005687
10
167.89868860462917
20
75.936542281201667
10
92.327860919374984
20
76.59196322159876
42
-0.39442494251920118
10
63.135659689903967
20
104.34078213301049
10
60.858462798546206
20
142.65863736201294
42
-0.26809871804008684
10
79.298773021863028
20
159.45585274093406
10
132.00637839806433
20
160.12025686749141
42
-0.41522806469350587
0
LWPOLYLINE
5
125
100
AcDbEntity
8
0
100
AcDbPolyline
90
4
70
1
43
0.0
10
23.210276872620263
20
79.996849859251427
10
44.681945893281735
20
79.996849859251427
10
43.108929847812036
20
25.098589872358723
10
24.154086499902093
20
24.469383454170842
0
LWPOLYLINE
5
126
100
AcDbEntity
8
0
100
AcDbPolyline
90
4
70
1
43
0.0
10
28.479880624943764
20
71.030658400074103
10
40.277500965966553
20
70.558753586433198
10
39.726945350052148
20
31.54795565878452
10
28.63718222949073
20
31.154701647417092
0
LWPOLYLINE
5
127
100
AcDbEntity
8
0
100
AcDbPolyline
90
5
70
1
43
0.0
10
113.60478077519984
20
29.31038280400513
10
64.932979305290118
20
29.525651970581166
42
-0.41970181885878571
10
60.454085153173935
20
34.12965892509078
10
61.078914457804103
20
61.145074394426175
10
113.60478077519984
20
61.145074394426175
0
LWPOLYLINE
5
128
100
AcDbEntity
8
0
100
AcDbPolyline
90
4
70
1
43
0.0
10
65.964608506945339
20
56.145074394426175
10
108.60478077519984
20
56.145074394426175
10
108.60478077519984
20
34.332546070183724
10
65.464527836563235
20
34.523349903522849
0
ARC
5
129
100
AcDbEntity
8
0
100
AcDbCircle
10
142.6375428486929
20
51.417969184592579
30
0
40
16.127943088096988
210
0
220
-0
230
1
100
AcDbArc
50
90
51
171.53453355875592
0
ARC
5
130
100
AcDbEntity
8
0
100
AcDbCircle
10
155.39614743724553
20
53.516932861900983
30
0
40
14.343782890031616
210
0
220
-0
230
1
100
AcDbArc
50
1.26098272957253
51
77.97394888220893
0
ARC
5
131
100
AcDbEntity
8
0
100
AcDbCircle
10
149.51884794002609
20
44.465116749664389
30
0
40
19.915594938558353
210
0
220
0
230
1
100
AcDbArc
50
276.84271074648063
51
352.71834930160219
0
ARC
5
132
100
AcDbEntity
8
0
100
AcDbCircle
10
144.45930562453344
20
42.123391376736414
30
0
40
17.819885522320181
210
0
220
0
230
1
100
AcDbArc
50
175.8868752239928
51
258.55648004703971
0
LINE
5
133
100
AcDbEntity
8
0
100
AcDbLine
10
126.68531737710478
20
43.401539180732257
30
0
11
126.68531737710478
21
53.792216593038233
31
0
0
LWPOLYLINE
5
134
100
AcDbEntity
8
0
100
AcDbPolyline
90
8
70
1
43
0.0
10
151.76595687500961
20
26.691005322375013
10
141.1272859833891
20
26.65838515647539
42
-0.37491292892374117
10
128.68531755591872
20
43.327581018314554
10
128.68531755591872
20
53.639270656170339
42
-0.36869142305784902
10
142.6375428486929
20
65.545912093875643
10
158.1660987470124
20
65.545912093875614
42
-0.34188549813473629
10
167.73551143589484
20
53.847186901382685
10
167.27885896157144
20
42.109157473706858
42
-0.3406132131326266
0
CIRCLE
5
135
100
AcDbEntity
8
0
100
AcDbCircle
10
147.92127139870132
20
46.08755680582972
30
0
40
17.032755867596173
210
0
220
0
230
1
0
ELLIPSE
5
136
100
AcDbEntity
8
0
100
AcDbEllipse
10
31.974077717302791
20
106.77883972938463
30
0
11
-20.127284236723323
21
0
31
0.0
40
0.90086046457571067
41
-1.5707963267948966
42
4.7123889803846897
0
LINE
5
137
100
AcDbEntity
8
0
100
AcDbLine
10
31.974077717302791
20
88.646965101242685
30
0
11
31.974077717302791
21
124.91071435752659
31
0
0
LINE
5
138
100
AcDbEntity
8
0
100
AcDbLine
10
52.101361954026117
20
106.77883972938463
30
0
11
11.846793480579464
21
106.77883972938463
31
0
0
ELLIPSE
5
139
100
AcDbEntity
8
0
100
AcDbEllipse
10
29.176859279581961
20
149.54512513687101
30
0
11
17.491510105059788
21
-4.218419217855705
31
0.0
40
0.97521382248068056
41
-1.5707963267948966
42
4.7123889803846897
0
LINE
5
140
100
AcDbEntity
8
0
100
AcDbLine
10
33.290720009852983
20
166.60308756738584
30
0
11
25.062998549310933
21
132.4871627063562
31
0
0
LINE
5
141
100
AcDbEntity
8
0
100
AcDbLine
10
11.685349174522166
20
153.76354435472672
30
0
11
46.66836938464175
21
145.3267059190153
31
0
0
ELLIPSE
5
142
100
AcDbEntity
8
0
100
AcDbEllipse
10
29.176859279581933
20
188.43477306025608
30
0
11
0
21
-17.045295956324043
31
0.0
40
0.87981318351256088
41
0
42
6.2831853071795862
0
LINE
5
143
100
AcDbEntity
8
0
100
AcDbLine
10
29.176859279581933
20
205.48006901658013
30
0
11
29.176859279581933
21
171.38947710393205
31
0
0
LINE
5
144
100
AcDbEntity
8
0
100
AcDbLine
10
14.180183180334696
20
188.43477306025608
30
0
11
44.173535378829172
21
188.43477306025608
31
0
0
ARC
5
145
100
AcDbEntity
8
0
100
AcDbCircle
10
77.590693318238507
20
90.85107344377262
30
0
40
15.000000000000046
210
0
220
0
230
1
100
AcDbArc
50
183.07688341248516
51
269.50308983890949
0
ARC
5
146
100
AcDbEntity
8
0
100
AcDbCircle
10
153.09583312892798
20
146.52089060792915
30
0
40
15.000000000000131
210
0
220
-0
230
1
100
AcDbArc
50
0.52381620139446772
51
90.722201966471133
0
ARC
5
147
100
AcDbEntity
8
0
100
AcDbCircle
10
80.978820902715611
20
140.12666525396853
30
0
40
21.063702383049645
210
0
220
0
230
1
100
AcDbArc
50
104.18708223702166
51
186.40595756644404
0
LINE
5
148
100
AcDbEntity
8
0
100
AcDbLine
10
75.816343131976453
20
160.54793801911018
30
0
11
152.90676610285885
21
161.51969901592133
31
0
0
ENDSEC
0
SECTION
2
OBJECTS
0
DICTIONARY
5
C
100
AcDbDictionary
3
ACAD_GROUP
350
D
3
ACAD_MLINESTYLE
350
17
0
DICTIONARY
5
D
100
AcDbDictionary
0
DICTIONARY
5
1A
330
C
100
AcDbDictionary
0
DICTIONARY
5
17
100
AcDbDictionary
0
ENDSEC
0
EOF
